<svg height="210" width="400" xmlns="http://www.w3.org/2000/svg" viewBox="2 2 116 47"><path d="M118,2 C107.055103,24.6900508 73.4549661,58.0904402 2,46.6958299 L3.66012512,45.138864 C77.868712,54.2823198 107.303625,17.07381 115.991944,2 L118,2 Z M67.1226326,2.36692827 L74.7273974,18.7001947 L81.9245865,2.36692827 L89.6387008,2.36692827 L76.5266947,31.3939294 L73.1467992,31.3939294 L59.0804696,2.36692827 L67.1226326,2.36692827 Z M16.6031365,2.36692827 C25.7686177,2.36692827 32.2898277,7.57334289 32.2898277,16.7961345 C32.2898277,27.7048128 24.0985517,31.3840124 16.6031365,31.3840124 L3.48118948,31.3840124 L3.48118948,2.36692827 L16.6031365,2.36692827 Z M49.0103694,2.36692827 C56.3765533,2.36692827 58.6629531,7.07749388 58.6629531,10.7864445 C58.6629531,14.2177196 56.9730054,16.2308666 53.8217499,17.7283306 C56.0683863,19.5233041 56.1280315,19.5233041 57.5396349,22.6868208 L61.5159825,31.3840124 L53.7919273,31.3840124 L51.1973605,26.1081789 L48.7220842,21.2885266 C48.1914138,20.0987953 46.9468224,19.3916054 45.6503556,19.543138 L43.3838375,19.543138 L43.3838375,31.3840124 L36.1667666,31.3840124 L36.1667666,2.36692827 L49.0103694,2.36692827 Z M15.1120062,7.57334289 L10.7082012,7.57334289 L10.7082012,26.1180959 L15.1120062,26.1180959 C20.0824407,26.1180959 24.8938212,24.0057791 24.8938212,16.7961345 C24.8938212,9.94350117 20.3110806,7.57334289 15.1120062,7.57334289 Z M47.1017225,7.57334289 L43.3838375,7.57334289 L43.3838375,14.2078027 L47.1017225,14.2078027 C50.024338,14.2078027 51.2073014,13.0871839 51.2073014,10.7864445 C51.2073014,9.11047483 50.024338,7.57334289 47.1017225,7.57334289 Z" fill="#ffffff" fill-rule="nonzero"/></svg>