<svg xmlns="http://www.w3.org/2000/svg" viewBox="0 0 91 81.4"><defs><style>.a{fill:#fff;}</style></defs><polygon class="a" points="89.1 76.5 85.7 67 83.1 67 83.1 81.3 84.9 81.3 84.9 70 89 81.3 91 81.3 91 67 89.1 67 89.1 76.5"/><polygon class="a" points="1.9 56.1 5.7 56.1 5.7 62.8 7.6 62.8 7.6 48.4 5.7 48.4 5.7 54.5 1.9 54.5 1.9 48.4 0 48.4 0 62.8 1.9 62.8 1.9 56.1"/><path class="a" d="M18.4,52.7c-2.7,0-4.1,2.5-4.1,7.4s1.4,7.4,4.1,7.4,4.1-2.5,4.1-7.4S21.1,52.7,18.4,52.7Zm0,13.1c-1,0-2.3-.6-2.3-5.7s1.3-5.7,2.3-5.7,2.2.6,2.2,5.7S19.3,65.8,18.4,65.8Z" transform="translate(-4.9 -4.5)"/><path class="a" d="M28.2,67.5c2.5,0,3.9-1.8,4-5v-.2H30.3v.2c0,2.3-.7,3.4-2.1,3.4-1.7,0-2.3-1.6-2.3-5.7s.7-5.7,2.3-5.7c1.1,0,1.7.9,1.9,3v.2H32v-.2c-.2-3-1.5-4.6-3.8-4.6-2.9,0-4.2,2.4-4.2,7.4Q23.85,67.5,28.2,67.5Z" transform="translate(-4.9 -4.5)"/><polygon class="a" points="36.6 62.8 36.6 48.4 34.7 48.4 34.7 54.5 31 54.5 31 48.4 29.1 48.4 29.1 62.8 31 62.8 31 56.1 34.7 56.1 34.7 62.8 36.6 62.8"/><path class="a" d="M47.3,59c-1.2-.9-2.3-1.6-2.3-3a1.55,1.55,0,0,1,1.7-1.6c1.2,0,1.8.8,2,2.3v.2h1.8v-.2c-.1-2.5-1.5-4-3.6-4a3.36,3.36,0,0,0-3.6,3.4c0,2.2,1.6,3.3,3.1,4.4,1.3.9,2.5,1.7,2.5,3.1A1.85,1.85,0,0,1,47,65.7c-1.3,0-2.1-.9-2.1-2.5V63H43.1v.2c0,2.5,1.5,4.1,3.7,4.1a3.47,3.47,0,0,0,3.8-3.8C50.6,61.2,48.9,60,47.3,59Z" transform="translate(-4.9 -4.5)"/><path class="a" d="M58.2,62.4c0,2.3-.7,3.4-2.1,3.4-1.7,0-2.3-1.6-2.3-5.7s.7-5.7,2.3-5.7c1.1,0,1.7.9,1.9,3v.2h1.9v-.2c-.2-3-1.5-4.6-3.8-4.6-2.9,0-4.2,2.4-4.2,7.4s1.4,7.4,4.2,7.4c2.5,0,3.9-1.8,4-5v-.2Z" transform="translate(-4.9 -4.5)"/><polygon class="a" points="58.9 56.1 62.7 56.1 62.7 62.8 64.6 62.8 64.6 48.4 62.7 48.4 62.7 54.5 58.9 54.5 58.9 48.4 57.1 48.4 57.1 62.8 58.9 62.8 58.9 56.1"/><path class="a" d="M79.1,63.4V52.9H77.2V63.4c0,1.7-.6,2.4-1.9,2.4s-1.9-.8-1.9-2.4V52.9H71.5V63.4c0,2.6,1.3,4.1,3.8,4.1S79.1,66,79.1,63.4Z" transform="translate(-4.9 -4.5)"/><polygon class="a" points="82.8 61.1 78.3 61.1 78.3 48.4 76.4 48.4 76.4 62.8 82.8 62.8 82.8 61.1"/><polygon class="a" points="85.8 61.1 85.8 56.1 89.4 56.1 89.4 54.5 85.8 54.5 85.8 50.1 90.7 50.1 90.7 48.4 84 48.4 84 62.8 91 62.8 91 61.1 85.8 61.1"/><path class="a" d="M7.7,71.5H4.9V85.9H7.7c3.4,0,4.9-2.2,4.9-7.2S11.1,71.5,7.7,71.5Zm-.9,1.6h.6c2.1,0,3.3.9,3.3,5.5s-1.2,5.5-3.3,5.5H6.8Z" transform="translate(-4.9 -4.5)"/><polygon class="a" points="12.5 74.7 16.1 74.7 16.1 73 12.5 73 12.5 68.6 17.4 68.6 17.4 67 10.6 67 10.6 81.3 17.6 81.3 17.6 79.7 12.5 79.7 12.5 74.7"/><path class="a" d="M33,75.3a3.68,3.68,0,0,0-4-3.8H25.4V85.9h1.9V79.3l1.6-.1,2.2,6.5v.1h2l-2.4-7A3.41,3.41,0,0,0,33,75.3Zm-5.7-2.2h1.1c1.9,0,2.7.6,2.7,2.2s-.8,2.2-2.7,2.2H27.3Z" transform="translate(-4.9 -4.5)"/><polygon class="a" points="39.6 75 37.3 67 34.5 67 34.5 81.3 36.3 81.3 36.3 69.9 38.9 78.5 40.2 78.5 42.8 69.9 42.8 81.3 44.6 81.3 44.6 67 41.8 67 39.6 75"/><polygon class="a" points="49.6 74.7 53.2 74.7 53.2 73 49.6 73 49.6 68.6 54.5 68.6 54.5 67 47.7 67 47.7 81.3 54.7 81.3 54.7 79.7 49.6 79.7 49.6 74.7"/><path class="a" d="M65.2,71.5H62.4V85.9h2.8c3.4,0,4.9-2.2,4.9-7.2S68.6,71.5,65.2,71.5Zm-.9,1.6H65c2.1,0,3.3.9,3.3,5.5s-1.2,5.5-3.3,5.5h-.6v-11Z" transform="translate(-4.9 -4.5)"/><rect class="a" x="68.1" y="67" width="1.9" height="14.4"/><polygon class="a" points="75.1 74.7 78.7 74.7 78.7 73 75.1 73 75.1 68.6 80 68.6 80 67 73.2 67 73.2 81.3 80.2 81.3 80.2 79.7 75.1 79.7 75.1 74.7"/><polygon class="a" points="5.9 0 5.9 40.8 0 40.8 0 0 5.9 0"/><polygon class="a" points="19.2 15 19.2 40.8 13.4 40.8 13.4 15 19.2 15"/><polygon class="a" points="35.1 15 35.1 40.8 29.2 40.8 29.2 15 35.1 15"/><polygon class="a" points="48.4 0 48.4 40.8 42.6 40.8 42.6 0 48.4 0"/><polygon class="a" points="64.3 15 64.3 40.8 58.4 40.8 58.4 15 64.3 15"/><polygon class="a" points="77.6 15 77.6 40.8 71.8 40.8 71.8 15 77.6 15"/><polygon class="a" points="91 15 91 40.8 85.1 40.8 85.1 15 91 15"/></svg>