<?xml version="1.0"?>
<svg width="396" height="282" xmlns="http://www.w3.org/2000/svg" xmlns:svg="http://www.w3.org/2000/svg" xmlns:xlink="http://www.w3.org/1999/xlink" clip-rule="evenodd" fill-rule="evenodd" stroke-linejoin="round" version="1.1" xml:space="preserve">
 <g class="layer">
  <title>Layer 1</title>
  <g id="IAAI-Logo-white">
   <g id="svg_38">
    <g id="svg_39">
     <path d="m218.52,154.82l17.12,-42.81l78.43,0l16.66,42.8l14.34,0l-62.46,-154.31l-15.04,0l-62.24,154.31l13.19,0l0,0.01zm56.45,-141.37l34.24,86.3l-68.71,0l34.47,-86.3z" fill="#000" fill-rule="nonzero" id="svg_40"/>
     <rect fill="#000" fill-rule="nonzero" height="154.32" id="svg_41" width="13.88" x="381.62" y="0.5"/>
    </g>
    <g id="svg_42">
     <path d="m177.48,154.82l-17.12,-42.81l-78.43,0l-16.66,42.8l-14.34,0l62.46,-154.31l15.04,0l62.24,154.31l-13.19,0l0,0.01zm-56.45,-141.37l-34.24,86.3l68.71,0l-34.47,-86.3z" fill="#000" fill-rule="nonzero" id="svg_43"/>
     <rect fill="#000" fill-rule="nonzero" height="154.32" id="svg_44" width="13.88" x="0.5" y="0.5"/>
    </g>
   </g>
   <g id="AI">
    <path d="m7.1,257.3l2.43,-6.44l11.38,0l2.36,6.44l4.19,0l-9.64,-24.56l-5.05,0l-9.57,24.56l3.9,0zm8.14,-21.72l4.68,12.33l-9.39,0l4.71,-12.33z" fill="#000" fill-rule="nonzero" id="svg_45"/>
    <path d="m36.67,257.3l0,-8.76c0,-2.84 0.92,-6.59 4.57,-6.59c0.55,0 1.03,0.03 1.51,0.22l0.18,-3.5c-0.55,-0.15 -0.99,-0.15 -1.55,-0.15c-2.39,0 -4.23,1.95 -5,3.91l-0.12,-3.54l-3.46,0c0.15,1.44 0.19,2.8 0.19,4.24l0,14.17l3.68,0z" fill="#000" fill-rule="nonzero" id="svg_46"/>
    <path d="m58.32,254.36c-0.66,0.29 -1.32,0.44 -2.02,0.44c-1.88,0 -2.29,-1.36 -2.29,-2.95l0,-10.31l4.13,0l0,-2.65l-4.13,0l0,-5.19l-3.71,1.21l0,3.98l-3.39,0l0,2.65l3.39,0l0,9.87c0,3.57 0.73,6.3 4.67,6.3c1.14,0 2.4,-0.22 3.54,-0.63l-0.19,-2.72z" fill="#000" fill-rule="nonzero" id="svg_47"/>
    <path d="m68.41,235.1l0,-3.57l-3.68,0l0,3.57l3.68,0zm0,22.2l0,-18.41l-3.68,0l0,18.41l3.68,0z" fill="#000" fill-rule="nonzero" id="svg_48"/>
    <path d="m81.82,257.3l0,-15.76l4.01,0l0,-2.65l-4.05,0l0,-2.21c0,-1.03 0.07,-3.57 2.58,-3.57c0.62,0 1.25,0.11 1.8,0.33l0.22,-2.65c-0.85,-0.33 -1.99,-0.41 -2.91,-0.41c-4.6,0 -5.41,3.36 -5.41,6.37l0,2.14l-3.5,0l0,2.65l3.5,0l0,15.76l3.76,0z" fill="#000" fill-rule="nonzero" id="svg_49"/>
    <path d="m96.32,235.1l0,-3.57l-3.68,0l0,3.57l3.68,0zm0,22.2l0,-18.41l-3.68,0l0,18.41l3.68,0z" fill="#000" fill-rule="nonzero" id="svg_50"/>
    <path d="m117.28,254.1c-1.22,0.55 -2.28,0.81 -3.65,0.81c-4.34,0 -6.44,-3.2 -6.44,-6.89c0,-3.83 2.21,-6.74 6.22,-6.74c1.44,0 2.73,0.26 3.87,0.82l0.22,-2.95c-1.58,-0.55 -2.98,-0.63 -4.6,-0.63c-5.79,0 -9.69,3.8 -9.69,9.5c0,5.64 3.28,9.69 9.61,9.69c1.73,0 3.17,-0.15 4.64,-0.7l-0.18,-2.91z" fill="#000" fill-rule="nonzero" id="svg_51"/>
    <path d="m127.77,235.1l0,-3.57l-3.68,0l0,3.57l3.68,0zm0,22.2l0,-18.41l-3.68,0l0,18.41l3.68,0z" fill="#000" fill-rule="nonzero" id="svg_52"/>
    <path d="m146.18,248.28l0,1c0,3.09 -1.43,5.74 -4.78,5.74c-1.95,0 -3.35,-0.88 -3.35,-2.98c0,-3.24 3.5,-3.76 7.14,-3.76l0.99,0zm3.83,9.02c-0.14,-1.29 -0.22,-2.5 -0.22,-4.09l0,-7.69c0,-4.97 -2.72,-7 -7.47,-7c-1.88,0 -4.24,0.52 -5.97,1.22l0.22,2.83c1.66,-1.03 3.54,-1.47 5.42,-1.47c2.91,0 4.19,1.47 4.19,4.16l0,0.77c-0.55,-0.03 -1.58,-0.03 -2.06,-0.03c-5.41,0 -9.72,1.47 -9.72,6.26c0,3.83 2.8,5.45 6.11,5.45c2.65,0 4.64,-1.25 5.78,-3.32l0.11,2.91l3.61,0z" fill="#000" fill-rule="nonzero" id="svg_53"/>
    <rect fill="#000" fill-rule="nonzero" height="26.55" id="svg_54" width="3.68" x="157.75" y="230.75"/>
    <rect fill="#000" fill-rule="nonzero" height="24.56" id="svg_55" width="4.01" x="183.12" y="232.74"/>
    <path d="m199.21,257.3l0,-10.01c0,-2.91 1.07,-5.9 4.49,-5.9c3.13,0 3.65,2.47 3.65,5.05l0,10.86l3.72,0l0,-11.63c0,-4.28 -1.62,-7.15 -6.19,-7.15c-2.69,0 -4.68,1.18 -5.96,3.54l-0.11,-3.17l-3.47,0c0.15,1.44 0.19,2.8 0.19,4.24l0,14.17l3.68,0z" fill="#000" fill-rule="nonzero" id="svg_56"/>
    <path d="m228.49,254.36c-0.67,0.29 -1.33,0.44 -2.03,0.44c-1.88,0 -2.28,-1.36 -2.28,-2.95l0,-10.31l4.12,0l0,-2.65l-4.12,0l0,-5.19l-3.72,1.21l0,3.98l-3.39,0l0,2.65l3.39,0l0,9.87c0,3.57 0.73,6.3 4.67,6.3c1.15,0 2.4,-0.22 3.54,-0.63l-0.18,-2.72z" fill="#000" fill-rule="nonzero" id="svg_57"/>
    <path d="m237.54,246.62c0.11,-2.65 1.59,-5.56 4.72,-5.56c3.31,0 4.12,2.77 4.12,5.56l-8.84,0zm12.38,2.29l0,-1.11c0,-5.19 -1.92,-9.28 -7.7,-9.28c-5.3,0 -8.43,4.46 -8.43,9.5c0,5.75 3.2,9.69 9.43,9.69c2.02,0 3.97,-0.3 5.7,-1l-0.22,-2.72c-1.47,0.77 -3.31,1.14 -4.97,1.14c-4.05,0 -6.15,-2.84 -6.15,-6.22l12.34,0z" fill="#000" fill-rule="nonzero" id="svg_58"/>
    <rect fill="#000" fill-rule="nonzero" height="26.55" id="svg_59" width="3.68" x="256.62" y="230.75"/>
    <rect fill="#000" fill-rule="nonzero" height="26.55" id="svg_60" width="3.68" x="268.33" y="230.75"/>
    <path d="m283.68,235.1l0,-3.57l-3.68,0l0,3.57l3.68,0zm0,22.2l0,-18.41l-3.68,0l0,18.41l3.68,0z" fill="#000" fill-rule="nonzero" id="svg_61"/>
    <path d="m292.04,264.67c2.07,0.62 4.16,0.99 6.26,0.99c6.15,0 9.14,-3.39 9.14,-9.39l0,-17.38l-3.54,0l0,3.06c-1.18,-2.36 -3.24,-3.43 -5.78,-3.43c-5.45,0 -7.55,4.61 -7.55,9.5c0,4.57 2.06,9.28 7.48,9.28c2.35,0 4.53,-1.17 5.7,-3.2l0,2.17c0,3.94 -1.73,6.59 -6,6.59c-1.91,0 -3.86,-0.47 -5.48,-1.32l-0.23,3.13zm3.43,-12.3c-0.7,-1.29 -0.92,-2.87 -0.92,-4.31c0,-3.09 0.81,-6.7 4.64,-6.7c3.57,0 4.67,3.75 4.67,6.7c0,2.8 -1.17,6.41 -4.71,6.41c-1.88,0 -2.98,-0.89 -3.68,-2.1z" fill="#000" fill-rule="nonzero" id="svg_62"/>
    <path d="m318.08,246.62c0.11,-2.65 1.58,-5.56 4.71,-5.56c3.32,0 4.13,2.77 4.13,5.56l-8.84,0zm12.37,2.29l0,-1.11c0,-5.19 -1.91,-9.28 -7.7,-9.28c-5.3,0 -8.43,4.46 -8.43,9.5c0,5.75 3.21,9.69 9.43,9.69c2.02,0 3.98,-0.3 5.71,-1l-0.22,-2.72c-1.48,0.77 -3.32,1.14 -4.98,1.14c-4.04,0 -6.14,-2.84 -6.14,-6.22l12.33,0z" fill="#000" fill-rule="nonzero" id="svg_63"/>
    <path d="m340.84,257.3l0,-10.01c0,-2.91 1.06,-5.9 4.49,-5.9c3.13,0 3.64,2.47 3.64,5.05l0,10.86l3.72,0l0,-11.63c0,-4.28 -1.62,-7.15 -6.18,-7.15c-2.69,0 -4.68,1.18 -5.97,3.54l-0.11,-3.17l-3.46,0c0.15,1.44 0.18,2.8 0.18,4.24l0,14.17l3.69,0z" fill="#000" fill-rule="nonzero" id="svg_64"/>
    <path d="m373.65,254.1c-1.22,0.55 -2.29,0.81 -3.65,0.81c-4.35,0 -6.44,-3.2 -6.44,-6.89c0,-3.83 2.21,-6.74 6.22,-6.74c1.44,0 2.72,0.26 3.87,0.82l0.22,-2.95c-1.59,-0.55 -2.99,-0.63 -4.61,-0.63c-5.78,0 -9.68,3.8 -9.68,9.5c0,5.64 3.28,9.69 9.61,9.69c1.73,0 3.17,-0.15 4.64,-0.7l-0.18,-2.91z" fill="#000" fill-rule="nonzero" id="svg_65"/>
    <path d="m383.11,246.62c0.11,-2.65 1.58,-5.56 4.71,-5.56c3.32,0 4.13,2.77 4.13,5.56l-8.84,0zm12.37,2.29l0,-1.11c0,-5.19 -1.91,-9.28 -7.69,-9.28c-5.31,0 -8.44,4.46 -8.44,9.5c0,5.75 3.21,9.69 9.43,9.69c2.03,0 3.98,-0.3 5.71,-1l-0.22,-2.72c-1.47,0.77 -3.32,1.14 -4.97,1.14c-4.05,0 -6.15,-2.84 -6.15,-6.22l12.33,0z" fill="#000" fill-rule="nonzero" id="svg_66"/>
   </g>
   <g id="IA">
    <rect fill="#000" fill-rule="nonzero" height="25.63" id="svg_67" width="4.19" x="3.2" y="191.54"/>
    <path d="m19.99,217.16l0,-10.45c0,-3.04 1.11,-6.15 4.68,-6.15c3.27,0 3.81,2.58 3.81,5.27l0,11.33l3.88,0l0,-12.14c0,-4.46 -1.69,-7.45 -6.46,-7.45c-2.8,0 -4.88,1.23 -6.22,3.68l-0.12,-3.3l-3.61,0c0.16,1.5 0.19,2.92 0.19,4.42l0,14.79l3.85,0z" fill="#000" fill-rule="nonzero" id="svg_68"/>
    <path d="m39.62,216.77c1.88,0.62 3.42,0.81 5.3,0.81c3.53,0 7.34,-1.65 7.34,-5.84c0,-6.53 -8.69,-5.34 -8.69,-9.03c0,-1.99 1.77,-2.42 3.46,-2.42c1.46,0 2.88,0.31 4.31,0.89l0.23,-2.81c-1.5,-0.57 -3,-0.8 -4.73,-0.8c-3.38,0 -6.99,1.26 -6.99,5.34c0,6.03 8.6,4.72 8.6,9.06c0,2.12 -1.61,2.88 -3.65,2.88c-1.8,0 -3.3,-0.34 -4.95,-1.15l-0.23,3.08l0,-0.01z" fill="#000" fill-rule="nonzero" id="svg_69"/>
    <path d="m69.47,214.09c-0.69,0.3 -1.38,0.46 -2.11,0.46c-1.96,0 -2.39,-1.42 -2.39,-3.08l0,-10.75l4.31,0l0,-2.77l-4.31,0l0,-5.42l-3.88,1.27l0,4.15l-3.53,0l0,2.77l3.53,0l0,10.29c0,3.73 0.77,6.57 4.88,6.57c1.19,0 2.5,-0.23 3.69,-0.65l-0.19,-2.84z" fill="#000" fill-rule="nonzero" id="svg_70"/>
    <path d="m79.99,193.99l0,-3.72l-3.84,0l0,3.72l3.84,0zm0,23.17l0,-19.21l-3.84,0l0,19.21l3.84,0z" fill="#000" fill-rule="nonzero" id="svg_71"/>
    <path d="m98.17,214.09c-0.69,0.3 -1.39,0.46 -2.12,0.46c-1.96,0 -2.38,-1.42 -2.38,-3.08l0,-10.75l4.3,0l0,-2.77l-4.3,0l0,-5.42l-3.88,1.27l0,4.15l-3.53,0l0,2.77l3.53,0l0,10.29c0,3.73 0.77,6.57 4.88,6.57c1.19,0 2.5,-0.23 3.69,-0.65l-0.19,-2.84z" fill="#000" fill-rule="nonzero" id="svg_72"/>
    <path d="m108.62,197.95l-3.85,0l0,12.1c0,4.42 1.66,7.53 6.42,7.53c2.8,0 4.84,-1.23 6.19,-3.69l0.11,3.27l3.61,0c-0.15,-1.5 -0.19,-2.92 -0.19,-4.42l0,-14.79l-3.84,0l0,10.45c0,3.03 -1.12,6.15 -4.65,6.15c-3.27,0 -3.8,-2.62 -3.8,-5.31l0,-11.29z" fill="#000" fill-rule="nonzero" id="svg_73"/>
    <path d="m139.08,214.09c-0.69,0.3 -1.38,0.46 -2.11,0.46c-1.96,0 -2.38,-1.42 -2.38,-3.08l0,-10.75l4.3,0l0,-2.77l-4.3,0l0,-5.42l-3.88,1.27l0,4.15l-3.54,0l0,2.77l3.54,0l0,10.29c0,3.73 0.77,6.57 4.88,6.57c1.19,0 2.49,-0.23 3.68,-0.65l-0.19,-2.84z" fill="#000" fill-rule="nonzero" id="svg_74"/>
    <path d="m148.53,206.02c0.12,-2.77 1.65,-5.8 4.92,-5.8c3.46,0 4.3,2.88 4.3,5.8l-9.22,0zm12.91,2.38l0,-1.15c0,-5.42 -2,-9.68 -8.03,-9.68c-5.53,0 -8.8,4.65 -8.8,9.91c0,5.99 3.35,10.1 9.84,10.1c2.11,0 4.15,-0.3 5.95,-1.03l-0.23,-2.85c-1.53,0.81 -3.46,1.19 -5.18,1.19c-4.23,0 -6.42,-2.95 -6.42,-6.49l12.87,0z" fill="#000" fill-rule="nonzero" id="svg_75"/>
    <path d="m187.95,217.16l0,-16.44l4.19,0l0,-2.77l-4.23,0l0,-2.31c0,-1.07 0.08,-3.72 2.69,-3.72c0.65,0 1.31,0.11 1.88,0.34l0.23,-2.76c-0.88,-0.35 -2.07,-0.42 -3.03,-0.42c-4.8,0 -5.65,3.49 -5.65,6.64l0,2.23l-3.65,0l0,2.77l3.65,0l0,16.44l3.92,0z" fill="#000" fill-rule="nonzero" id="svg_76"/>
    <path d="m202.55,216.85c1.19,0.5 2.53,0.73 4.07,0.73c6.07,0 9.45,-4.26 9.45,-10.1c0,-6 -3.38,-9.91 -9.45,-9.91c-5.72,0 -9.45,4.07 -9.45,9.91c0,4.38 1.88,7.83 5.38,9.37zm-0.04,-4.45c-0.81,-1.39 -1.19,-3.19 -1.19,-4.92c0,-3.38 1.46,-7.03 5.3,-7.03c3.96,0 5.3,3.61 5.3,7.03c0,3.53 -1.46,7.18 -5.3,7.18c-1.96,0 -3.23,-0.92 -4.11,-2.26z" fill="#000" fill-rule="nonzero" id="svg_77"/>
    <path d="m227.13,217.16l0,-9.14c0,-2.96 0.97,-6.88 4.77,-6.88c0.58,0 1.08,0.04 1.57,0.23l0.2,-3.65c-0.58,-0.15 -1.04,-0.15 -1.62,-0.15c-2.49,0 -4.42,2.03 -5.22,4.07l-0.12,-3.69l-3.61,0c0.15,1.5 0.19,2.92 0.19,4.42l0,14.79l3.84,0z" fill="#000" fill-rule="nonzero" id="svg_78"/>
    <path d="m255.26,217.16l2.53,-6.72l11.87,0l2.46,6.72l4.38,0l-10.06,-25.62l-5.27,0l-9.99,25.62l4.08,0zm8.49,-22.67l4.88,12.87l-9.8,0l4.92,-12.87z" fill="#000" fill-rule="nonzero" id="svg_79"/>
    <path d="m286.11,225.46l0,-11.41c0.96,2.3 3.34,3.53 5.8,3.53c5.8,0 7.95,-5.03 7.95,-10.1c0,-5.11 -2.04,-9.91 -7.87,-9.91c-2.5,0 -5.08,1.38 -6.11,3.68l-0.16,-3.3l-3.65,0c0.12,1.88 0.19,3.8 0.19,6.07l0,21.44l3.85,0zm0.92,-13.26c-0.77,-1.42 -1.04,-3.18 -1.04,-4.72c0,-3.07 1.23,-6.96 4.92,-6.96c3.96,0 4.8,3.77 4.8,6.96c0,3.19 -0.96,7.14 -4.84,7.14c-1.84,0 -3.07,-1.03 -3.84,-2.42z" fill="#000" fill-rule="nonzero" id="svg_80"/>
    <path d="m310.89,225.46l0,-11.41c0.96,2.3 3.34,3.53 5.8,3.53c5.8,0 7.95,-5.03 7.95,-10.1c0,-5.11 -2.04,-9.91 -7.88,-9.91c-2.49,0 -5.07,1.38 -6.1,3.68l-0.16,-3.3l-3.65,0c0.12,1.88 0.2,3.8 0.2,6.07l0,21.44l3.84,0zm0.92,-13.26c-0.77,-1.42 -1.04,-3.18 -1.04,-4.72c0,-3.07 1.23,-6.96 4.92,-6.96c3.96,0 4.8,3.77 4.8,6.96c0,3.19 -0.96,7.14 -4.84,7.14c-1.84,0 -3.07,-1.03 -3.84,-2.42z" fill="#000" fill-rule="nonzero" id="svg_81"/>
    <rect fill="#000" fill-rule="nonzero" height="27.7" id="svg_82" width="3.84" x="331.82" y="189.46"/>
    <path d="m347.85,193.99l0,-3.72l-3.85,0l0,3.72l3.85,0zm0,23.17l0,-19.21l-3.85,0l0,19.21l3.85,0z" fill="#000" fill-rule="nonzero" id="svg_83"/>
    <path d="m358.95,206.02c0.11,-2.77 1.65,-5.8 4.92,-5.8c3.45,0 4.3,2.88 4.3,5.8l-9.22,0zm12.91,2.38l0,-1.15c0,-5.42 -2,-9.68 -8.03,-9.68c-5.54,0 -8.8,4.65 -8.8,9.91c0,5.99 3.34,10.1 9.83,10.1c2.12,0 4.15,-0.3 5.96,-1.03l-0.23,-2.85c-1.54,0.81 -3.46,1.19 -5.19,1.19c-4.22,0 -6.41,-2.95 -6.41,-6.49l12.87,0z" fill="#000" fill-rule="nonzero" id="svg_84"/>
    <path d="m395.48,217.16c-0.11,-1.81 -0.19,-3.61 -0.19,-5.76l0,-21.94l-3.84,0l0,11.68c-0.96,-2.31 -3.38,-3.57 -5.8,-3.57c-5.8,0 -7.96,4.8 -7.96,9.91c0,5.07 2.16,10.1 7.96,10.1c2.65,0 4.84,-1.15 6.03,-3.61l0.23,3.19l3.57,0zm-12.68,-4.92c-0.73,-1.38 -0.96,-3.15 -0.96,-4.72c0,-3.23 0.85,-7 4.81,-7c3.68,0 4.91,3.92 4.91,7c0,3.03 -1.15,7.1 -4.88,7.1c-1.95,0 -3.15,-0.99 -3.88,-2.38z" fill="#000" fill-rule="nonzero" id="svg_85"/>
   </g>
   <path d="m0.5,170.32l394.98,0" fill="none" id="Line" stroke="#000" stroke-miterlimit="1" stroke-width="2px"/>
   <path d="m0.5,280.46l394.98,0" fill="none" id="Line1" stroke="#000" stroke-miterlimit="1" stroke-width="2px"/>
  </g>
 </g>
</svg>