<?xml version="1.0" standalone="no"?>
<!DOCTYPE svg PUBLIC "-//W3C//DTD SVG 20010904//EN"
 "http://www.w3.org/TR/2001/REC-SVG-20010904/DTD/svg10.dtd">
<svg version="1.0" xmlns="http://www.w3.org/2000/svg"
 width="1000.000000pt" height="1000.000000pt" viewBox="0 0 1000.000000 1000.000000"
 preserveAspectRatio="xMidYMid meet">
<metadata>
Created by potrace 1.14, written by Peter Selinger 2001-2017
</metadata>
<g transform="translate(0.000000,1000.000000) scale(0.100000,-0.100000)"
fill="#000000" stroke="none">
<path d="M9300 6752 c-69 -119 -236 -365 -353 -518 -955 -1258 -2346 -2143
-4027 -2564 -1237 -310 -2574 -378 -4115 -210 l-179 20 -58 -57 c-32 -31 -56
-58 -55 -60 10 -10 453 -70 747 -102 807 -88 1634 -100 2365 -35 1712 152
3202 729 4345 1683 620 519 1160 1184 1485 1832 l45 89 -77 0 -78 0 -45 -78z"/>
<path d="M620 5676 l0 -1126 563 0 c582 0 686 6 838 45 337 88 574 265 706
530 183 365 158 877 -58 1196 -129 192 -336 339 -579 413 -191 57 -206 59
-862 63 l-608 4 0 -1125z m1119 699 c326 -73 495 -262 533 -596 20 -182 -19
-390 -98 -520 -75 -123 -217 -224 -384 -271 -66 -18 -109 -21 -347 -25 l-273
-5 0 714 c0 393 3 718 8 722 14 15 481 -1 561 -19z"/>
<path d="M3150 5676 l0 -1126 280 0 280 0 0 460 0 460 116 0 c139 0 181 -11
239 -62 37 -33 71 -93 250 -448 l206 -410 294 0 c162 0 295 3 295 7 0 7 -340
753 -377 826 -28 57 -77 113 -156 178 l-57 48 42 22 c166 85 274 207 313 355
20 77 20 233 0 320 -43 185 -155 325 -325 407 -169 81 -158 80 -817 84 l-583
4 0 -1125z m935 713 c103 -19 170 -62 208 -134 17 -32 22 -57 21 -120 0 -120
-37 -180 -139 -227 -46 -20 -68 -23 -257 -26 l-208 -4 0 261 0 261 158 0 c87
0 185 -5 217 -11z"/>
<path d="M4973 6713 c23 -49 267 -554 543 -1123 l501 -1035 134 0 133 0 506
1120 506 1120 -295 3 c-215 2 -297 -1 -302 -9 -4 -7 -130 -290 -280 -631 -150
-340 -276 -615 -280 -611 -4 4 -138 287 -297 628 l-288 620 -312 3 -311 2 42
-87z"/>
</g>
</svg>
