<?xml version="1.0" standalone="no"?>
<!DOCTYPE svg PUBLIC "-//W3C//DTD SVG 20010904//EN"
 "http://www.w3.org/TR/2001/REC-SVG-20010904/DTD/svg10.dtd">
<svg version="1.0" xmlns="http://www.w3.org/2000/svg"
 width="1000.000000pt" height="1000.000000pt" viewBox="0 0 1000.000000 1000.000000"
 preserveAspectRatio="xMidYMid meet">
<metadata>
Created by potrace 1.14, written by Peter Selinger 2001-2017
</metadata>
<g transform="translate(0.000000,1000.000000) scale(0.100000,-0.100000)"
fill="#000000" stroke="none">
<path d="M0 5000 l0 -5000 5000 0 5000 0 0 5000 0 5000 -5000 0 -5000 0 0
-5000z m9500 3034 c0 -14 -128 -254 -203 -380 -377 -631 -898 -1214 -1512
-1690 -1128 -875 -2575 -1403 -4220 -1539 -661 -54 -1424 -45 -2155 25 -342
33 -887 105 -903 119 -4 4 19 33 52 64 42 40 67 57 86 57 15 0 134 -11 264
-25 596 -62 966 -79 1605 -72 497 5 703 16 1081 57 1365 148 2566 546 3585
1188 858 540 1602 1283 2099 2100 l63 102 79 0 c43 0 79 -3 79 -6z m-7615 -39
c457 -69 782 -323 908 -710 74 -226 77 -560 7 -787 -104 -339 -356 -575 -725
-683 -188 -55 -232 -58 -872 -62 l-593 -5 0 1131 0 1131 588 0 c471 0 607 -3
687 -15z m2473 -1 c288 -59 472 -233 526 -496 40 -194 0 -378 -111 -508 -38
-44 -134 -115 -202 -150 l-44 -22 34 -26 c72 -54 149 -142 182 -208 44 -88
377 -819 377 -827 0 -4 -135 -7 -299 -7 l-300 0 -208 412 c-135 268 -219 424
-241 445 -53 53 -89 63 -228 63 l-124 0 -2 -457 -3 -458 -282 -3 -283 -2 0
1130 0 1130 565 0 c478 0 578 -2 643 -16z m1487 -601 c158 -340 290 -621 294
-625 4 -5 130 273 281 617 l275 625 303 0 c166 0 302 -2 302 -5 0 -6 -975
-2166 -1002 -2218 l-19 -38 -131 3 -132 3 -543 1120 c-298 616 -543 1123 -543
1128 0 4 141 7 314 7 l313 0 288 -617z"/>
<path d="M1180 6885 l0 -717 253 5 c210 4 266 8 333 25 215 55 353 161 433
332 46 98 62 172 68 310 9 206 -26 355 -113 483 -62 90 -120 139 -229 192
-141 68 -200 78 -492 83 l-253 4 0 -717z"/>
<path d="M3720 7350 l0 -251 208 3 209 3 58 30 c50 25 63 39 87 84 23 44 28
66 28 125 -1 115 -42 181 -145 228 -46 21 -67 23 -247 26 l-198 4 0 -252z"/>
</g>
</svg>
